<?xml version="1.0" standalone="no"?>
<!DOCTYPE svg PUBLIC "-//W3C//DTD SVG 20010904//EN"
 "http://www.w3.org/TR/2001/REC-SVG-20010904/DTD/svg10.dtd">
<svg version="1.0" xmlns="http://www.w3.org/2000/svg"
 width="700.000000pt" height="700.000000pt" viewBox="0 0 700.000000 700.000000"
 preserveAspectRatio="xMidYMid meet">
<metadata>
Created by potrace 1.11, written by Peter Selinger 2001-2013
</metadata>
<g transform="translate(0.000000,700.000000) scale(0.100000,-0.100000)"
fill="#000000" stroke="none">
<path d="M3479 6492 c-8 -15 -74 -128 -145 -252 -72 -124 -224 -387 -338 -585
-115 -198 -244 -422 -288 -498 -73 -125 -80 -140 -69 -163 9 -21 212 -374 290
-504 11 -19 30 -52 41 -72 11 -20 74 -129 140 -243 66 -114 120 -209 120 -212
0 -2 14 -24 30 -48 17 -24 30 -46 30 -49 0 -3 42 -78 94 -166 91 -155 93 -159
54 -126 -22 20 -63 43 -90 52 -56 18 -163 25 -217 13 -20 -4 -52 -10 -71 -13
-63 -9 -88 -16 -247 -68 -87 -29 -160 -52 -163 -53 -3 0 -68 -22 -145 -47
-184 -61 -245 -78 -335 -92 -168 -27 -293 0 -375 81 -51 49 -52 49 -87 -17 -7
-13 -42 -74 -77 -135 -35 -60 -123 -213 -196 -340 -73 -126 -164 -284 -202
-350 -39 -66 -104 -178 -145 -250 -193 -334 -237 -410 -321 -555 -49 -85 -98
-171 -109 -190 -11 -19 -53 -91 -93 -160 -75 -128 -285 -491 -315 -545 -9 -16
-43 -75 -75 -130 -32 -55 -78 -136 -103 -180 -25 -44 -51 -87 -59 -97 -8 -9
-11 -18 -6 -21 4 -3 396 -5 871 -5 658 0 866 3 875 13 7 6 43 65 80 131 38 65
73 126 78 134 32 51 209 363 209 367 0 4 6 14 14 22 7 9 27 41 44 71 16 30
135 237 264 460 129 223 246 426 261 452 27 49 64 110 85 143 6 11 15 26 19
34 3 8 35 64 71 125 36 61 73 126 84 145 11 19 93 161 182 315 90 155 174 301
188 326 75 134 163 280 168 280 3 0 57 -89 119 -197 63 -109 160 -277 216
-373 90 -155 244 -421 731 -1265 73 -126 143 -248 156 -270 14 -22 130 -222
258 -445 128 -223 241 -419 252 -437 l19 -31 869 0 c479 0 870 4 870 9 0 4
-13 31 -30 59 -16 28 -30 53 -30 55 0 3 -16 29 -35 59 -19 30 -35 57 -35 60 0
5 -33 62 -90 156 -5 8 -34 60 -66 115 -32 55 -237 411 -456 790 -219 380 -404
699 -410 710 -6 11 -57 99 -113 195 -294 506 -355 612 -355 621 0 5 -4 9 -10
9 -5 0 -10 4 -10 10 0 5 -38 73 -83 152 -46 79 -220 379 -386 668 -167 289
-312 537 -322 552 -10 15 -19 30 -19 34 0 4 -14 30 -32 58 -17 28 -39 65 -48
81 -9 17 -69 120 -132 230 -64 110 -125 216 -136 235 -10 19 -43 76 -72 125
-29 50 -62 108 -75 130 -12 22 -54 94 -92 160 -130 225 -261 450 -284 491
-110 192 -165 284 -169 284 -3 0 -12 -12 -21 -28z"/>
</g>
</svg>
